<svg id="kity_svg_6" xmlns="http://www.w3.org/2000/svg" xmlns:xlink="http://www.w3.org/1999/xlink" version="1.1" width="981px" height="524px" contenteditable="true" class="loading-target" style="cursor: default;" viewBox="-331 -72 981 524"><defs id="kity_defs_7"><marker id="kity_marker_4" orient="auto" refX="6" refY="0" viewBox="-7 -7 14 14" markerWidth="7" markerHeight="7" markerUnits="userSpaceOnUse"><path id="kity_path_5" fill="none" stroke="none" d="M6,0A6,6,0,1,1,-6,0A6,6,0,1,1,6,0"/></marker></defs><g id="kity_g_8" transform=""><g id="minder_1" text-rendering="optimize-speed" transform="matrix(1 0 0 1 0 0) scale(1 1)"><g id="drop-sibling-hinter" display="none"><path id="kity_path_22" fill="none" stroke="lightblue" stroke-width="2"/><path id="kity_path_23" fill="lightblue" stroke="none" d="M5,0h30a5,5,0,0,1,5,5v10a5,5,0,0,1,-5,5h-30a5,5,0,0,1,-5,-5v-10a5,5,0,0,1,5,-5z"/></g><g id="drop-child-hinter" display="none"><path id="kity_path_19" fill="none" stroke="lightblue" stroke-width="2"/><path id="kity_path_20" fill="lightblue" stroke="none" d="M5,0h30a5,5,0,0,1,5,5v10a5,5,0,0,1,-5,5h-30a5,5,0,0,1,-5,-5v-10a5,5,0,0,1,5,-5z"/></g><g id="minder_connect_group_1"><path id="kity_path_43" fill="none" stroke="#8DB9FF" stroke-width="2" d="M144,32v30h-363V82" transform="translate( 0.5 0.5 )"/><path id="kity_path_45" fill="none" stroke="#8DB9FF" stroke-width="2" d="M144,32v30h-117V82" transform="translate( 0.5 0.5 )"/><path id="kity_path_47" fill="none" stroke="#8DB9FF" stroke-width="2" d="M144,32v30h135V82" transform="translate( 0.5 0.5 )"/><path id="kity_path_331" fill="none" stroke="#8DB9FF" stroke-width="2" d="M144,32v30h364V82" transform="translate( 0.5 0.5 )"/><path id="kity_path_1124" fill="none" stroke="#8DB9FF" stroke-width="2" d="M-271 138V180L-261 180" transform="translate( 0.5 0.5 )"/><path id="kity_path_1792" fill="none" stroke="#8DB9FF" stroke-width="2" d="M-271 138V224L-261 224" transform="translate( 0.5 0.5 )"/><path id="kity_path_2192" fill="none" stroke="#8DB9FF" stroke-width="2" d="M-271 138V268L-261 268" transform="translate( 0.5 0.5 )"/><path id="kity_path_2840" fill="none" stroke="#8DB9FF" stroke-width="2" d="M-25 138V180L-15 180" transform="translate( 0.5 0.5 )"/><path id="kity_path_3208" fill="none" stroke="#8DB9FF" stroke-width="2" d="M-25 138V224L-15 224" transform="translate( 0.5 0.5 )"/><path id="kity_path_3876" fill="none" stroke="#8DB9FF" stroke-width="2" d="M-25 138V268L-15 268" transform="translate( 0.5 0.5 )"/><path id="kity_path_4489" fill="none" stroke="#8DB9FF" stroke-width="2" d="M-25 138V312L-15 312" transform="translate( 0.5 0.5 )"/><path id="kity_path_5169" fill="none" stroke="#8DB9FF" stroke-width="2" d="M-25 138V356L-15 356" transform="translate( 0.5 0.5 )"/><path id="kity_path_6477" fill="none" stroke="#8DB9FF" stroke-width="2" d="M-25 138V400L-15 400" transform="translate( 0.5 0.5 )"/><path id="kity_path_7353" fill="none" stroke="#8DB9FF" stroke-width="2" d="M215 138V180L225 180" transform="translate( 0.5 0.5 )"/><path id="kity_path_8666" fill="none" stroke="#8DB9FF" stroke-width="2" d="M215 138V224L225 224" transform="translate( 0.5 0.5 )"/><path id="kity_path_9810" fill="none" stroke="#8DB9FF" stroke-width="2" d="M215 138V268L225 268" transform="translate( 0.5 0.5 )"/><path id="kity_path_10923" fill="none" stroke="#8DB9FF" stroke-width="2" d="M456 138V180L466 180" transform="translate( 0.5 0.5 )"/></g><g id="boundary-container"/><g id="summary-container"/><path id="summary-range" fill="rgba(235, 240, 250, 0.2)" stroke="none" d="M0,0h0v0h0z"/><path id="summary-selection" fill="transparent" stroke="none" d="M0,0h1v15h-1z"/><g id="virtual-drag-sources-container"/><g id="relationship-container"/><path id="relationship-range" fill="rgba(235, 240, 250, 0.2)" stroke="none" d="M0,0h0v0h0z"/><path id="relationship-selection" fill="transparent" stroke="none" d="M0,0h1v15h-1z"/><g id="minder_node_1" transform="matrix( 1 0 0 1 0 0 )"><path id="kity_path_33" fill="none" stroke="none" d="M-8,-27h312a12,12,0,0,1,12,12v40a12,12,0,0,1,-12,12h-312a12,12,0,0,1,-12,-12v-40a12,12,0,0,1,12,-12z"/><path id="node_outline_1" fill="#EAF3FF" stroke="#8DB9FF" d="M-12,-32h312a12,12,0,0,1,12,12v40a12,12,0,0,1,-12,12h-312a12,12,0,0,1,-12,-12v-40a12,12,0,0,1,12,-12z" stroke-width="4"/><g id="node_text_1" transform="translate( 0 -5 )" fill="#3B57A6" style="cursor: default;"><text id="kity_text_31" text-rendering="inherit" dominant-baseline="text-before-edge" dy="0" text-decoration="none" font-size="32" y="-16" font-weight="bold">交互式计算机图形学</text></g><path id="_kity_selection" fill="rgb(27,171,255)" stroke="none" opacity="0.5" transform="translate( -0.5 -1.5 )" style="cursor: text; display: none;" d="M124,-6h2v16h-2v-16z"/></g><g id="minder_node_1050" transform="matrix( 1 0 0 1 -253 180 )"><g id="node_expander_6" transform="translate( 12 18 )" style="cursor: pointer;" display="none"><path id="kity_path_1129" fill="white" stroke="gray" d="M6,0A6,6,0,1,1,-6,0A6,6,0,1,1,6,0"/><path id="kity_path_1130" fill="none" stroke="gray"/></g><path id="node_outline_7" fill="none" stroke="none" d="M-4,-12h168a4,4,0,0,1,4,4v16a4,4,0,0,1,-4,4h-168a4,4,0,0,1,-4,-4v-16a4,4,0,0,1,4,-4z" stroke-width="2"/><g id="node_text_7" transform="translate( 0 -2.5 )" fill="#3B57A6" style="cursor: default;"><text id="kity_text_1126" text-rendering="inherit" dominant-baseline="text-before-edge" dy="0" text-decoration="none" font-size="16" y="-8" font-weight="bold">第1章 图形系统与模型</text></g></g><g id="minder_node_1711" transform="matrix( 1 0 0 1 -253 224 )"><g id="node_expander_7" transform="translate( 12 18 )" style="cursor: pointer;" display="none"><path id="kity_path_1797" fill="white" stroke="gray" d="M6,0A6,6,0,1,1,-6,0A6,6,0,1,1,6,0"/><path id="kity_path_1798" fill="none" stroke="gray"/></g><path id="node_outline_8" fill="none" stroke="none" d="M-4,-12h121a4,4,0,0,1,4,4v16a4,4,0,0,1,-4,4h-121a4,4,0,0,1,-4,-4v-16a4,4,0,0,1,4,-4z" stroke-width="2"/><g id="node_text_8" transform="translate( 0 -2.5 )" fill="#3B57A6" style="cursor: default;"><text id="kity_text_1794" text-rendering="inherit" dominant-baseline="text-before-edge" dy="0" text-decoration="none" font-size="16" y="-8" font-weight="bold">第2章 图形编程</text></g></g><g id="minder_node_2104" transform="matrix( 1 0 0 1 -253 268 )"><g id="node_expander_8" transform="translate( 12 18 )" style="cursor: pointer;" display="none"><path id="kity_path_2197" fill="white" stroke="gray" d="M6,0A6,6,0,1,1,-6,0A6,6,0,1,1,6,0"/><path id="kity_path_2198" fill="none" stroke="gray"/></g><path id="node_outline_9" fill="none" stroke="none" d="M-4,-12h168a4,4,0,0,1,4,4v16a4,4,0,0,1,-4,4h-168a4,4,0,0,1,-4,-4v-16a4,4,0,0,1,4,-4z" stroke-width="2"/><g id="node_text_9" transform="translate( 0 -2.5 )" fill="#3B57A6" style="cursor: default;"><text id="kity_text_2194" text-rendering="inherit" dominant-baseline="text-before-edge" dy="0" text-decoration="none" font-size="16" y="-8" font-weight="bold">第4章 几何对象与变换</text></g></g><g id="minder_node_2745" transform="matrix( 1 0 0 1 -7 180 )"><g id="node_expander_9" transform="translate( 12 18 )" style="cursor: pointer;" display="none"><path id="kity_path_2845" fill="white" stroke="gray" d="M6,0A6,6,0,1,1,-6,0A6,6,0,1,1,6,0"/><path id="kity_path_2846" fill="none" stroke="gray"/></g><path id="node_outline_10" fill="none" stroke="none" d="M-4,-12h89a4,4,0,0,1,4,4v16a4,4,0,0,1,-4,4h-89a4,4,0,0,1,-4,-4v-16a4,4,0,0,1,4,-4z" stroke-width="2"/><g id="node_text_10" transform="translate( 0 -2.5 )" fill="#3B57A6" style="cursor: default;"><text id="kity_text_2842" text-rendering="inherit" dominant-baseline="text-before-edge" dy="0" text-decoration="none" font-size="16" y="-8" font-weight="bold">第5章 观察</text></g></g><g id="minder_node_3106" transform="matrix( 1 0 0 1 -7 224 )"><g id="node_expander_10" transform="translate( 12 18 )" style="cursor: pointer;" display="none"><path id="kity_path_3213" fill="white" stroke="gray" d="M6,0A6,6,0,1,1,-6,0A6,6,0,1,1,6,0"/><path id="kity_path_3214" fill="none" stroke="gray"/></g><path id="node_outline_11" fill="none" stroke="none" d="M-4,-12h136a4,4,0,0,1,4,4v16a4,4,0,0,1,-4,4h-136a4,4,0,0,1,-4,-4v-16a4,4,0,0,1,4,-4z" stroke-width="2"/><g id="node_text_11" transform="translate( 0 -2.5 )" fill="#3B57A6" style="cursor: default;"><text id="kity_text_3210" text-rendering="inherit" dominant-baseline="text-before-edge" dy="0" text-decoration="none" font-size="16" y="-8" font-weight="bold">第6章 光照与着色</text></g></g><g id="minder_node_3767" transform="matrix( 1 0 0 1 -7 268 )"><g id="node_expander_11" transform="translate( 12 18 )" style="cursor: pointer;" display="none"><path id="kity_path_3881" fill="white" stroke="gray" d="M6,0A6,6,0,1,1,-6,0A6,6,0,1,1,6,0"/><path id="kity_path_3882" fill="none" stroke="gray"/></g><path id="node_outline_12" fill="none" stroke="none" d="M-4,-12h121a4,4,0,0,1,4,4v16a4,4,0,0,1,-4,4h-121a4,4,0,0,1,-4,-4v-16a4,4,0,0,1,4,-4z" stroke-width="2"/><g id="node_text_12" transform="translate( 0 -2.5 )" fill="#3B57A6" style="cursor: default;"><text id="kity_text_3878" text-rendering="inherit" dominant-baseline="text-before-edge" dy="0" text-decoration="none" font-size="16" y="-8" font-weight="bold">第7章 纹理映射</text></g></g><g id="minder_node_4373" transform="matrix( 1 0 0 1 -7 312 )"><g id="node_expander_12" transform="translate( 12 18 )" style="cursor: pointer;" display="none"><path id="kity_path_4494" fill="white" stroke="gray" d="M6,0A6,6,0,1,1,-6,0A6,6,0,1,1,6,0"/><path id="kity_path_4495" fill="none" stroke="gray"/></g><path id="node_outline_13" fill="none" stroke="none" d="M-4,-12h104a4,4,0,0,1,4,4v16a4,4,0,0,1,-4,4h-104a4,4,0,0,1,-4,-4v-16a4,4,0,0,1,4,-4z" stroke-width="2"/><g id="node_text_13" transform="translate( 0 -2.5 )" fill="#3B57A6" style="cursor: default;"><text id="kity_text_4491" text-rendering="inherit" dominant-baseline="text-before-edge" dy="0" text-decoration="none" font-size="16" y="-8" font-weight="bold">第8章 帧缓坡</text></g></g><g id="minder_node_5046" transform="matrix( 1 0 0 1 -7 356 )"><g id="node_expander_13" transform="translate( 12 18 )" style="cursor: pointer;" display="none"><path id="kity_path_5174" fill="white" stroke="gray" d="M6,0A6,6,0,1,1,-6,0A6,6,0,1,1,6,0"/><path id="kity_path_5175" fill="none" stroke="gray"/></g><path id="node_outline_14" fill="none" stroke="none" d="M-4,-12h162a4,4,0,0,1,4,4v16a4,4,0,0,1,-4,4h-162a4,4,0,0,1,-4,-4v-16a4,4,0,0,1,4,-4z" stroke-width="2"/><g id="node_text_14" transform="translate( 0 -2.5 )" fill="#3B57A6" style="cursor: default;"><text id="kity_text_5171" text-rendering="inherit" dominant-baseline="text-before-edge" dy="0" text-decoration="none" font-size="16" y="-8" font-weight="bold">第12章 从几何到像素</text></g></g><g id="minder_node_6347" transform="matrix( 1 0 0 1 -7 400 )"><g id="node_expander_14" transform="translate( 12 18 )" style="cursor: pointer;" display="none"><path id="kity_path_6482" fill="white" stroke="gray" d="M6,0A6,6,0,1,1,-6,0A6,6,0,1,1,6,0"/><path id="kity_path_6483" fill="none" stroke="gray"/></g><path id="node_outline_15" fill="none" stroke="none" d="M-4,-12h130a4,4,0,0,1,4,4v16a4,4,0,0,1,-4,4h-130a4,4,0,0,1,-4,-4v-16a4,4,0,0,1,4,-4z" stroke-width="2"/><g id="node_text_15" transform="translate( 0 -2.5 )" fill="#3B57A6" style="cursor: default;"><text id="kity_text_6479" text-rendering="inherit" dominant-baseline="text-before-edge" dy="0" text-decoration="none" font-size="16" y="-8" font-weight="bold">第13章 高级绘制</text></g></g><g id="minder_node_7216" transform="matrix( 1 0 0 1 233 180 )"><g id="node_expander_15" transform="translate( 12 18 )" style="cursor: pointer;" display="none"><path id="kity_path_7358" fill="white" stroke="gray" d="M6,0A6,6,0,1,1,-6,0A6,6,0,1,1,6,0"/><path id="kity_path_7359" fill="none" stroke="gray"/></g><path id="node_outline_16" fill="none" stroke="none" d="M-4,-12h137a4,4,0,0,1,4,4v16a4,4,0,0,1,-4,4h-137a4,4,0,0,1,-4,-4v-16a4,4,0,0,1,4,-4z" stroke-width="2"/><g id="node_text_16" transform="translate( 0 -2.5 )" fill="#3B57A6" style="cursor: default;"><text id="kity_text_7355" text-rendering="inherit" dominant-baseline="text-before-edge" dy="0" text-decoration="none" font-size="16" y="-8" font-weight="bold">第9章 建模与层次</text></g></g><g id="minder_node_8522" transform="matrix( 1 0 0 1 233 224 )"><g id="node_expander_16" transform="translate( 12 18 )" style="cursor: pointer;" display="none"><path id="kity_path_8671" fill="white" stroke="gray" d="M6,0A6,6,0,1,1,-6,0A6,6,0,1,1,6,0"/><path id="kity_path_8672" fill="none" stroke="gray"/></g><path id="node_outline_17" fill="none" stroke="none" d="M-4,-12h163a4,4,0,0,1,4,4v16a4,4,0,0,1,-4,4h-163a4,4,0,0,1,-4,-4v-16a4,4,0,0,1,4,-4z" stroke-width="2"/><g id="node_text_17" transform="translate( 0 -2.5 )" fill="#3B57A6" style="cursor: default;"><text id="kity_text_8668" text-rendering="inherit" dominant-baseline="text-before-edge" dy="0" text-decoration="none" font-size="16" y="-8" font-weight="bold">第10章 过程建模方法</text></g></g><g id="minder_node_9659" transform="matrix( 1 0 0 1 233 268 )"><g id="node_expander_17" transform="translate( 12 18 )" style="cursor: pointer;" display="none"><path id="kity_path_9815" fill="white" stroke="gray" d="M6,0A6,6,0,1,1,-6,0A6,6,0,1,1,6,0"/><path id="kity_path_9816" fill="none" stroke="gray"/></g><path id="node_outline_18" fill="none" stroke="none" d="M-4,-12h146a4,4,0,0,1,4,4v16a4,4,0,0,1,-4,4h-146a4,4,0,0,1,-4,-4v-16a4,4,0,0,1,4,-4z" stroke-width="2"/><g id="node_text_18" transform="translate( 0 -2.5 )" fill="#3B57A6" style="cursor: default;"><text id="kity_text_9812" text-rendering="inherit" dominant-baseline="text-before-edge" dy="0" text-decoration="none" font-size="16" y="-8" font-weight="bold">第11章 曲线与曲面</text></g></g><g id="minder_node_10765" transform="matrix( 1 0 0 1 474 180 )"><g id="node_expander_18" transform="translate( 12 18 )" style="cursor: pointer;" display="none"><path id="kity_path_10928" fill="white" stroke="gray" d="M6,0A6,6,0,1,1,-6,0A6,6,0,1,1,6,0"/><path id="kity_path_10929" fill="none" stroke="gray"/></g><path id="node_outline_19" fill="none" stroke="none" d="M-4,-12h136a4,4,0,0,1,4,4v16a4,4,0,0,1,-4,4h-136a4,4,0,0,1,-4,-4v-16a4,4,0,0,1,4,-4z" stroke-width="2"/><g id="node_text_19" transform="translate( 0 -2.5 )" fill="#3B57A6" style="cursor: default;"><text id="kity_text_10925" text-rendering="inherit" dominant-baseline="text-before-edge" dy="0" text-decoration="none" font-size="16" y="-8" font-weight="bold">第3章 交互与动画</text></g></g><g id="minder_node_4" transform="matrix( 1 0 0 1 -267 110 )"><path id="kity_path_12190" fill="none" stroke="none" d="M-8,-23h120a12,12,0,0,1,12,12v32a12,12,0,0,1,-12,12h-120a12,12,0,0,1,-12,-12v-32a12,12,0,0,1,12,-12z"/><g id="node_expander_1" transform="translate( -4 34 )" style="cursor: pointer;"><path id="kity_path_58" fill="white" stroke="gray" d="M6,0A6,6,0,1,1,-6,0A6,6,0,1,1,6,0"/><path id="kity_path_59" fill="none" stroke="gray" d="M-4.5,0L4.5,0"/></g><path id="node_outline_2" fill="#EAF3FF" stroke="#8DB9FF" d="M-12,-28h120a12,12,0,0,1,12,12v32a12,12,0,0,1,-12,12h-120a12,12,0,0,1,-12,-12v-32a12,12,0,0,1,12,-12z" stroke-width="2"/><g id="node_text_2" transform="translate( 0 -3.5 )" fill="#3B57A6" style="cursor: default;"><text id="kity_text_49" text-rendering="inherit" dominant-baseline="text-before-edge" dy="0" text-decoration="none" font-size="24" y="-12" font-weight="bold">基础模块</text></g></g><g id="minder_node_5" transform="matrix( 1 0 0 1 -21 110 )"><path id="kity_path_12191" fill="none" stroke="none" d="M-8,-23h120a12,12,0,0,1,12,12v32a12,12,0,0,1,-12,12h-120a12,12,0,0,1,-12,-12v-32a12,12,0,0,1,12,-12z"/><g id="node_expander_2" transform="translate( -4 34 )" style="cursor: pointer;"><path id="kity_path_61" fill="white" stroke="gray" d="M6,0A6,6,0,1,1,-6,0A6,6,0,1,1,6,0"/><path id="kity_path_62" fill="none" stroke="gray" d="M-4.5,0L4.5,0"/></g><path id="node_outline_3" fill="#EAF3FF" stroke="#8DB9FF" d="M-12,-28h120a12,12,0,0,1,12,12v32a12,12,0,0,1,-12,12h-120a12,12,0,0,1,-12,-12v-32a12,12,0,0,1,12,-12z" stroke-width="2"/><g id="node_text_3" transform="translate( 0 -3.5 )" fill="#3B57A6" style="cursor: default;"><text id="kity_text_51" text-rendering="inherit" dominant-baseline="text-before-edge" dy="0" text-decoration="none" font-size="24" y="-12" font-weight="bold">绘制模块</text></g></g><g id="minder_node_6" transform="matrix( 1 0 0 1 219 110 )"><path id="kity_path_12192" fill="none" stroke="none" d="M-8,-23h144a12,12,0,0,1,12,12v32a12,12,0,0,1,-12,12h-144a12,12,0,0,1,-12,-12v-32a12,12,0,0,1,12,-12z"/><g id="node_expander_3" transform="translate( -4 34 )" style="cursor: pointer;"><path id="kity_path_64" fill="white" stroke="gray" d="M6,0A6,6,0,1,1,-6,0A6,6,0,1,1,6,0"/><path id="kity_path_65" fill="none" stroke="gray" d="M-4.5,0L4.5,0"/></g><path id="node_outline_4" fill="#EAF3FF" stroke="#8DB9FF" d="M-12,-28h144a12,12,0,0,1,12,12v32a12,12,0,0,1,-12,12h-144a12,12,0,0,1,-12,-12v-32a12,12,0,0,1,12,-12z" stroke-width="2"/><g id="node_text_4" transform="translate( 0 -3.5 )" fill="#3B57A6" style="cursor: default;"><text id="kity_text_53" text-rendering="inherit" dominant-baseline="text-before-edge" dy="0" text-decoration="none" font-size="24" y="-12" font-weight="bold">建模与表示</text></g></g><g id="minder_node_271" transform="matrix( 1 0 0 1 460 110 )"><path id="kity_path_12193" fill="none" stroke="none" d="M-8,-23h120a12,12,0,0,1,12,12v32a12,12,0,0,1,-12,12h-120a12,12,0,0,1,-12,-12v-32a12,12,0,0,1,12,-12z"/><g id="node_expander_4" transform="translate( -4 34 )" style="cursor: pointer;"><path id="kity_path_336" fill="white" stroke="gray" d="M6,0A6,6,0,1,1,-6,0A6,6,0,1,1,6,0"/><path id="kity_path_337" fill="none" stroke="gray" d="M-4.5,0L4.5,0"/></g><path id="node_outline_5" fill="#EAF3FF" stroke="#8DB9FF" d="M-12,-28h120a12,12,0,0,1,12,12v32a12,12,0,0,1,-12,12h-120a12,12,0,0,1,-12,-12v-32a12,12,0,0,1,12,-12z" stroke-width="2"/><g id="node_text_5" transform="translate( 0 -3.5 )" fill="#3B57A6" style="cursor: default;"><text id="kity_text_333" text-rendering="inherit" dominant-baseline="text-before-edge" dy="0" text-decoration="none" font-size="24" y="-12" font-weight="bold">交互技术</text></g></g></g></g></svg>